<?xml version="1.0" encoding="UTF-8"?>
<svg id="stepNodes" data-name="图层 1" xmlns="http://www.w3.org/2000/svg" viewBox="0 0 1025 1025">
  <path d="m528.28,48c-92.15,267.2-131.45,375.68-405.1,494.27C72.03,444.77,483.12,109.42,528.28,48Z" style="fill: #ffc107; stroke-width: 0px;"/>
  <path d="m528.28,48c.2,95.16,29.37,425.99-136.1,339.79,0-.02,136.1-339.79,136.1-339.79Z" style="fill: #ffab00; stroke-width: 0px;"/>
  <path
    d="m900.79,492.97l-244.34-171.27-26.4,32.35c-22.58-22.18-60.2-73.26-94.03-38.13-19.73,42.84-2-274.5-7.75-267.91,49.66,60.15,395.35,353.51,372.52,444.96Z"
    style="fill: #ff6f00; stroke-width: 0px;"/>
  <path
    d="m230.07,659.58c37.36-11.15,299.33-319.36,345.56-258.29,9.25,34.13,335.66,228.01,188.81,253.4-222.67-118.8-139.46-275.75-385.74-28.62-20.48,19.39-73.04,52.35-37.49,83.25,188.8,178.93,200.36,224.13,396.55,13.94,216.22-59.52-187.55,306.63-218.01,244.44-8.97-31.71-357.9-264.16-289.69-308.12Z"
    style="fill: #ff6f00; stroke-width: 0px;"/>
  <path
    d="m649.73,706.77c-24.77,14.86-81.71,112.49-117.72,73.18-14.87-24.77-112.5-81.71-73.18-117.72,24.77-14.87,81.71-112.5,117.72-73.18,14.87,24.77,112.5,81.71,73.18,117.73Z"
    style="fill: #ffab00; stroke-width: 0px;"/>
  <path d="m1024,1v1023H1V1h1023m1-1H0v1025h1025V0h0Z" style="stroke-width: 0px;"/>
</svg>
